<svg width="48" height="48" viewBox="0 0 48 48" fill="none" xmlns="http://www.w3.org/2000/svg">
<path fill-rule="evenodd" clip-rule="evenodd" d="M12.4796 6C10.889 6 9.59961 7.26414 9.59961 8.82353V25.825V38.8235V40.5882C9.59961 41.3679 10.2443 42 11.0396 42H36.9596C37.7549 42 38.3996 41.3679 38.3996 40.5882V25.825C38.3996 25.3981 38.2025 24.9941 37.8636 24.7261L34.2117 21.8388C34.4816 21.4231 34.7375 21.011 34.9778 20.6032C36.3555 18.265 37.3196 15.9057 37.3196 13.7647C37.3196 10.7256 36.1581 8.70819 34.5587 7.48856C33.0284 6.32168 31.2504 6 30.1196 6H12.4796ZM31.9546 20.0543C32.1398 19.7631 32.3164 19.4752 32.484 19.1909C33.7837 16.985 34.4396 15.1531 34.4396 13.7647C34.4396 11.5097 33.6211 10.3506 32.7905 9.71732C31.8908 9.03126 30.7888 8.82353 30.1196 8.82353L12.4796 8.82353V22.8729L23.0956 14.4794C23.6232 14.0623 24.376 14.0623 24.9036 14.4794L31.9546 20.0543ZM30.3353 22.4012C29.4275 23.6297 28.4059 24.8965 27.3066 26.1806C23.4957 30.6322 18.8647 35.1638 15.0618 38.885C14.962 38.9827 14.8627 39.0799 14.764 39.1765H12.4796V26.5002L23.9996 17.392L30.3353 22.4012ZM18.8386 39.1765C22.2703 35.8051 26.1907 31.8763 29.5126 27.9958C30.6048 26.72 31.6411 25.4394 32.58 24.1759L35.5196 26.5002V39.1765H18.8386Z" fill="#191919"/>
</svg>
