<svg width="40" height="40" viewBox="0 0 40 40" fill="none" xmlns="http://www.w3.org/2000/svg">
<path d="M0 8C0 3.58172 3.58172 0 8 0H32C36.4183 0 40 3.58172 40 8V32C40 36.4183 36.4183 40 32 40H8C3.58172 40 0 36.4183 0 32V8Z" fill="#EE7D3E"/>
<path fill-rule="evenodd" clip-rule="evenodd" d="M12 7.5C10.8954 7.5 10 8.37787 10 9.46078V21.2674V30.2941V31.5196C10 32.0611 10.4477 32.5 11 32.5H29C29.5523 32.5 30 32.0611 30 31.5196V21.2674C30 20.9709 29.8632 20.6904 29.6278 20.5042L27.0917 18.4991C27.2792 18.2105 27.4569 17.9243 27.6237 17.6411C28.5805 16.0174 29.25 14.379 29.25 12.8922C29.25 10.7817 28.4434 9.38069 27.3327 8.53372C26.27 7.72339 25.0353 7.5 24.25 7.5H12ZM25.5243 17.2599C25.6529 17.0577 25.7755 16.8578 25.8919 16.6603C26.7945 15.1285 27.25 13.8563 27.25 12.8922C27.25 11.3262 26.6816 10.5213 26.1048 10.0815C25.48 9.60504 24.7147 9.46078 24.25 9.46078L12 9.46078V19.2173L19.3722 13.3885C19.7386 13.0988 20.2614 13.0988 20.6278 13.3885L25.5243 17.2599ZM12 21.7362L20 15.4111L24.3998 18.8897C23.7694 19.7429 23.0599 20.6226 22.2965 21.5143C19.6501 24.6057 16.4341 27.7526 13.7932 30.3368C13.7239 30.4047 13.6549 30.4721 13.5864 30.5392H12V30.2941V21.7362ZM16.416 30.5392C18.7991 28.198 21.5216 25.4696 23.8285 22.7749C24.5869 21.8889 25.3066 20.9996 25.9586 20.1222L28 21.7362V30.5392H16.416Z" fill="#FDFDFD"/>
</svg>
