<svg width="40" height="33" viewBox="0 0 40 33" fill="none" xmlns="http://www.w3.org/2000/svg">
<path d="M38.3327 2.00016C36.7367 3.12595 34.9695 3.98701 33.0993 4.55016C32.0956 3.39601 30.7616 2.57798 29.2777 2.2067C27.7939 1.83543 26.2318 1.92882 24.8028 2.47425C23.3738 3.01968 22.1468 3.99083 21.2877 5.25635C20.4286 6.52188 19.9788 8.02072 19.9993 9.55016V11.2168C17.0704 11.2928 14.1681 10.6432 11.551 9.3259C8.93392 8.00862 6.68321 6.06455 4.99935 3.66682C4.99935 3.66682 -1.66732 18.6668 13.3327 25.3335C9.90023 27.6634 5.81128 28.8317 1.66602 28.6668C16.666 37.0002 34.9993 28.6668 34.9993 9.50016C34.9978 9.03591 34.9532 8.57282 34.866 8.11683C36.567 6.43931 37.7674 4.32135 38.3327 2.00016Z" fill="#414141" stroke="#414141" stroke-width="2" stroke-linecap="round" stroke-linejoin="round"/>
</svg>
