<svg width="269" height="251" viewBox="0 0 269 251" fill="none" xmlns="http://www.w3.org/2000/svg">
<path fill-rule="evenodd" clip-rule="evenodd" d="M134.769 10.1655L261.537 111.564C263.409 113.061 266.14 112.758 267.637 110.886C269.134 109.014 268.83 106.283 266.959 104.786L137.99 1.62699C137.511 1.24443 136.977 0.97946 136.421 0.828187C134.973 0.151212 133.203 0.303888 131.87 1.37034L2.04903 105.211C0.177391 106.708 -0.126249 109.439 1.37083 111.311C2.86791 113.182 5.59879 113.486 7.47042 111.989L134.769 10.1655ZM37.0972 242.419V101.012L135.669 21.6582L234.861 101.012V242.419C234.861 246.838 231.279 250.419 226.861 250.419H45.0972C40.6789 250.419 37.0972 246.838 37.0972 242.419ZM201.115 118.979C202.387 118.856 203.447 119.942 203.292 121.211L196.985 173.064C196.782 174.73 194.74 175.421 193.568 174.219L175.392 155.584L141.235 188.904C140.922 189.21 140.586 189.478 140.233 189.71C140.112 189.852 139.985 189.991 139.851 190.125C137.255 192.721 133.045 192.721 130.449 190.125L109.846 169.522L75.9381 202.6C73.31 205.164 69.1011 205.112 66.5373 202.484C63.9735 199.856 64.0257 195.647 66.6538 193.083L103.985 156.666C104.268 156.18 104.617 155.723 105.033 155.307C107.629 152.711 111.838 152.711 114.434 155.307L135.273 176.146L166.108 146.066L147.881 127.379C146.709 126.177 147.45 124.152 149.121 123.991L201.115 118.979Z" fill="url(#paint0_linear)"/>
<defs>
<linearGradient id="paint0_linear" x1="0.419922" y1="125.419" x2="268.588" y2="125.419" gradientUnits="userSpaceOnUse">
<stop stop-color="#EE7D3E"/>
<stop offset="1" stop-color="#FEB47B"/>
</linearGradient>
</defs>
</svg>
