<svg width="249" height="240" viewBox="0 0 249 240" fill="none" xmlns="http://www.w3.org/2000/svg">
<path fill-rule="evenodd" clip-rule="evenodd" d="M28.0233 43.1455L122.597 8.92047L221.57 43.5198C223.835 44.3116 226.307 43.1154 227.092 40.848C227.877 38.5806 226.677 36.1006 224.412 35.3089L124.108 0.244309C123.284 -0.0436799 122.433 -0.0686733 121.645 0.125214C121.35 0.16632 121.055 0.2387 120.763 0.34429L25.0927 34.9661C22.8366 35.7826 21.6637 38.2754 22.473 40.5341C23.2823 42.7928 25.7672 43.9619 28.0233 43.1455ZM0 122.637C0 120.236 1.9461 118.29 4.34675 118.29H8.65028H43.2513V46.4317C43.2513 45.5837 43.786 44.8279 44.5857 44.5457L123.53 16.6863C123.959 16.5349 124.427 16.5343 124.856 16.6847L204.413 44.5477C205.215 44.8286 205.752 45.5856 205.752 46.4353V118.29H239.735H244.039C246.439 118.29 248.385 120.236 248.385 122.637C248.385 125.038 246.439 126.984 244.039 126.984H239.735V222.612H245.385C247.042 222.612 248.385 223.955 248.385 225.612V236.999C248.385 238.656 247.042 239.999 245.385 239.999H239.735H150.761V173.451C150.761 171.794 149.418 170.451 147.761 170.451H101.86C100.203 170.451 98.8599 171.794 98.8599 173.451V239.999H8.65028H3C1.34314 239.999 0 238.656 0 236.999V225.612C0 223.955 1.34315 222.612 3 222.612H8.65028V126.984H4.34674C1.9461 126.984 0 125.038 0 122.637ZM38.8367 153.064C37.1798 153.064 35.8367 154.407 35.8367 156.064V200.983C35.8367 202.64 37.1798 203.983 38.8367 203.983H69.9091C71.566 203.983 72.9091 202.64 72.9091 200.983V156.064C72.9091 154.407 71.566 153.064 69.9091 153.064H38.8367ZM77.8521 64.1617C77.8521 62.5048 79.1952 61.1617 80.8521 61.1617H104.51C106.167 61.1617 107.51 62.5048 107.51 64.1617V97.9034C107.51 99.5602 106.167 100.903 104.51 100.903H80.8521C79.1952 100.903 77.8521 99.5602 77.8521 97.9034V64.1617ZM145.111 61.1617C143.454 61.1617 142.111 62.5048 142.111 64.1617V97.9034C142.111 99.5602 143.454 100.903 145.111 100.903H168.769C170.426 100.903 171.769 99.5602 171.769 97.9034V64.1617C171.769 62.5048 170.426 61.1617 168.769 61.1617H145.111ZM176.712 156.064C176.712 154.407 178.055 153.064 179.712 153.064H210.785C212.441 153.064 213.785 154.407 213.785 156.064V200.983C213.785 202.64 212.441 203.983 210.785 203.983H179.712C178.055 203.983 176.712 202.64 176.712 200.983V156.064Z" fill="url(#paint0_linear)"/>
<defs>
<linearGradient id="paint0_linear" x1="0" y1="120" x2="248.385" y2="120" gradientUnits="userSpaceOnUse">
<stop stop-color="#EE7D3E"/>
<stop offset="1" stop-color="#FEB47B"/>
</linearGradient>
</defs>
</svg>
