<svg width="300" height="200" viewBox="0 0 300 200" fill="none" xmlns="http://www.w3.org/2000/svg">
<path fill-rule="evenodd" clip-rule="evenodd" d="M229.575 160.543C242.377 143.738 249.979 122.757 249.979 100C249.979 75.9973 241.522 53.9698 227.426 36.7343H260.863V59.7732C260.863 61.4522 262.807 62.3839 264.116 61.3323L298.718 33.5319C299.715 32.7313 299.715 31.2142 298.718 30.4136L264.116 2.61323C262.807 1.56167 260.863 2.49341 260.863 4.17236V27.2105H218.548C200.645 10.3396 176.519 0 149.979 0C123.438 0 99.3119 10.3396 81.4093 27.2105H5.76108C3.13116 27.2105 0.99918 29.3425 0.99918 31.9724C0.99918 34.6023 3.13116 36.7343 5.76109 36.7343H72.5314C58.4351 53.9698 49.9785 75.9973 49.9785 100C49.9785 122.757 57.5798 143.738 70.3819 160.543H39.4347V137.505C39.4347 135.826 37.4909 134.895 36.182 135.946L1.57939 163.747C0.582911 164.547 0.58291 166.064 1.57939 166.865L36.182 194.665C37.4909 195.717 39.4347 194.785 39.4347 193.106V170.067H78.6297C96.7743 188.541 122.038 200 149.979 200C177.919 200 203.183 188.541 221.327 170.067H294.537C297.167 170.067 299.298 167.935 299.298 165.305C299.298 162.675 297.167 160.543 294.537 160.543H229.575ZM111.311 97.8919C109.749 99.454 109.749 101.987 111.311 103.549L147.871 140.109C149.433 141.671 151.966 141.671 153.528 140.109L190.088 103.549C191.65 101.987 191.65 99.454 190.088 97.8919L153.528 61.332C151.966 59.7699 149.433 59.7699 147.871 61.332L111.311 97.8919Z" fill="url(#paint0_linear)"/>
<defs>
<linearGradient id="paint0_linear" x1="0.832031" y1="100" x2="299.466" y2="100" gradientUnits="userSpaceOnUse">
<stop stop-color="#EE7D3E"/>
<stop offset="1" stop-color="#FEB47B"/>
</linearGradient>
</defs>
</svg>
